HIERARCHY
ROOT Hips
{
 OFFSET 0.000000 0.000000 0.000000
 CHANNELS 6 Xposition Yposition Zposition Yrotation Xrotation Zrotation
 JOINT Chest
 {
  OFFSET 0.000000 10.385163 0.011643
  CHANNELS 3 Yrotation Xrotation Zrotation
  JOINT Chest2
  {
   OFFSET 0.000000 11.579334 -0.021150
   CHANNELS 3 Yrotation Xrotation Zrotation
   JOINT Chest3
   {
    OFFSET 0.000000 10.463212 0.000000
    CHANNELS 3 Yrotation Xrotation Zrotation
    JOINT Chest4
    {
     OFFSET 0.000000 10.463212 0.000000
     CHANNELS 3 Yrotation Xrotation Zrotation
     JOINT Neck
     {
      OFFSET 0.000000 14.544862 0.000000
      CHANNELS 3 Yrotation Xrotation Zrotation
      JOINT Head
      {
       OFFSET 0.000000 9.730630 -0.050295
       CHANNELS 3 Yrotation Xrotation Zrotation
       End Site
       {
        OFFSET 0.000000 18.757589 -0.026270
       }
      }
     }
     JOINT RightCollar
     {
      OFFSET -2.985174 8.102313 0.000000
      CHANNELS 3 Yrotation Xrotation Zrotation
      JOINT RightShoulder
      {
       OFFSET -13.558590 0.000000 0.000000
       CHANNELS 3 Yrotation Xrotation Zrotation
       JOINT RightElbow
       {
        OFFSET -28.208579 0.000000 0.000000
        CHANNELS 3 Yrotation Xrotation Zrotation
        JOINT RightWrist
        {
         OFFSET -23.322907 0.000000 0.010349
         CHANNELS 3 Yrotation Xrotation Zrotation
         End Site
         {
          OFFSET -17.603338 0.000000 0.000000
         }
        }
       }
      }
     }
     JOINT LeftCollar
     {
      OFFSET 2.985174 8.102313 0.000000
      CHANNELS 3 Yrotation Xrotation Zrotation
      JOINT LeftShoulder
      {
       OFFSET 13.558590 0.000000 0.000000
       CHANNELS 3 Yrotation Xrotation Zrotation
       JOINT LeftElbow
       {
        OFFSET 28.208579 0.000000 0.000000
        CHANNELS 3 Yrotation Xrotation Zrotation
        JOINT LeftWrist
        {
         OFFSET 23.322907 0.000000 0.010349
         CHANNELS 3 Yrotation Xrotation Zrotation
         End Site
         {
          OFFSET 17.603338 0.000000 0.000000
         }
        }
       }
      }
     }
    }
   }
  }
 }
 JOINT RightHip
 {
  OFFSET -8.341224 -0.057053 -0.005822
  CHANNELS 3 Yrotation Xrotation Zrotation
  JOINT RightKnee
  {
   OFFSET 0.000000 -44.280013 0.005508
   CHANNELS 3 Yrotation Xrotation Zrotation
   JOINT RightAnkle
   {
    OFFSET 0.000000 -43.261728 0.009315
    CHANNELS 3 Yrotation Xrotation Zrotation
    JOINT RightToe
    {
     OFFSET 0.000000 -8.082955 18.257715
     CHANNELS 3 Yrotation Xrotation Zrotation
     End Site
     {
      OFFSET 0.000000 -1.634678 7.189621
     }
    }
   }
  }
 }
 JOINT LeftHip
 {
  OFFSET 8.341224 -0.057053 -0.005822
  CHANNELS 3 Yrotation Xrotation Zrotation
  JOINT LeftKnee
  {
   OFFSET 0.000000 -44.280013 0.005508
   CHANNELS 3 Yrotation Xrotation Zrotation
   JOINT LeftAnkle
   {
    OFFSET 0.000000 -43.261728 0.009315
    CHANNELS 3 Yrotation Xrotation Zrotation
    JOINT LeftToe
    {
     OFFSET 0.000000 -8.082955 18.257715
     CHANNELS 3 Yrotation Xrotation Zrotation
     End Site
     {
      OFFSET 0.000000 -1.634678 7.189621
     }
    }
   }
  }
 }
}
MOTION
Frames: 11
Frame Time: 0.016667
0.000000 95.489079 0.000000 0.000000 -5.826342 0.000000 0.000000 11.116423 0.000000 0.000000 -5.290081 0.000000 0.000000 0.000000 0.000000 0.000000 0.000000 0.000000 0.000000 12.665069 0.000000 0.000000 0.575450 0.000000 0.000000 0.000000 0.000000 0.000000 0.000000 0.000000 2.337306 0.000000 0.000000 -2.337306 0.000000 0.000000 0.000000 0.000000 0.000000 0.000000 0.000000 0.000000 -2.337306 0.000000 0.000000 2.337306 0.000000 0.000000 0.000000 8.578828 0.000000 0.000000 1.905768 0.000000 0.000000 -4.658254 0.000000 0.000000 0.000000 0.000000 0.000000 8.578828 0.000000 0.000000 1.905768 0.000000 0.000000 -4.658254 0.000000 0.000000 0.000000 0.000000
-72.309987 97.641509 -78.193883 127.106155 -11.430216 0.016066 2.055646 9.142575 2.704659 0.857160 4.075210 1.157492 0.857162 4.075211 1.157492 0.634876 3.058053 0.862031 14.312157 14.404112 -2.310461 27.679015 -7.573623 -9.607037 -1.262868 -3.489341 4.820416 10.432314 -15.517846 76.255320 2.249690 16.724325 -3.578738 2.657406 1.018711 -0.705481 -3.269174 -3.470004 -12.216982 4.394035 -12.517633 -75.607299 5.753599 17.526987 6.431745 2.447447 0.222823 -1.975871 -18.784961 12.813559 -2.952951 -2.309444 2.064046 0.423094 -12.700189 -6.175554 0.356630 0.000000 0.000000 -0.000000 -13.586704 8.367773 -2.127647 -1.709919 4.412879 0.232371 -5.402069 -3.816795 -0.224075 0.000000 0.000000 0.000000
-72.322604 97.636001 -78.130800 127.041710 -11.280491 0.074484 2.122556 9.037145 2.673594 0.888098 4.028601 1.142984 0.888100 4.028602 1.142984 0.658260 3.023133 0.851024 14.295714 14.472150 -2.303003 27.632293 -7.455171 -9.571185 -1.253494 -3.357430 4.773767 10.525488 -15.623505 76.277629 2.574637 16.765476 -3.386638 2.671145 1.004480 -0.712939 -3.220017 -3.375436 -12.184221 4.752596 -12.328402 -75.610899 6.277847 17.517784 6.811297 2.545121 0.271672 -2.061900 -18.566728 12.623153 -2.887925 -2.638750 2.084989 0.480883 -12.524107 -6.177328 0.284751 0.000000 0.000000 0.000000 -13.439353 8.169041 -2.134982 -1.879007 4.459690 0.291615 -5.316473 -3.831775 -0.278068 0.000000 -0.000000 0.000000
-72.333162 97.631689 -78.070191 126.979789 -11.146472 0.126192 2.180960 8.942076 2.645204 0.915139 3.986552 1.129795 0.915139 3.986552 1.129795 0.678699 2.991625 0.841028 14.278720 14.531934 -2.294460 27.585872 -7.352117 -9.535240 -1.245250 -3.236630 4.732435 10.590011 -15.698884 76.302964 2.867315 16.822945 -3.194920 2.677018 0.993370 -0.710359 -3.186559 -3.285267 -12.163727 5.115003 -12.145706 -75.610386 6.691528 17.577787 7.107700 2.640055 0.320341 -2.164405 -18.370566 12.452942 -2.827999 -2.935716 2.104447 0.525484 -12.360301 -6.178127 0.218847 0.000000 0.000000 0.000000 -13.295983 7.994823 -2.136706 -2.044994 4.497765 0.345996 -5.233514 -3.845881 -0.330162 -0.000000 0.000000 -0.000000
-72.341189 97.629262 -78.012111 126.920620 -11.033590 0.168029 2.227551 8.861268 2.620607 0.936772 3.950786 1.118453 0.936772 3.950785 1.118453 0.695062 2.964822 0.832445 14.260818 14.579914 -2.284584 27.539686 -7.271060 -9.499479 -1.238714 -3.133068 4.699024 10.616426 -15.731665 76.332411 3.120747 16.900126 -2.998055 2.669376 0.986022 -0.690872 -3.179551 -3.200929 -12.162264 5.500416 -11.969975 -75.602127 6.952569 17.759032 7.285501 2.735470 0.367146 -2.300022 -18.212131 12.310389 -2.774991 -3.181781 2.121438 0.549532 -12.210973 -6.177501 0.160976 -0.000000 0.000000 -0.000000 -13.157529 7.853849 -2.128581 -2.211994 4.524429 0.394297 -5.148845 -3.859605 -0.380853 -0.000000 0.000000 -0.000000
-72.347157 97.628031 -77.956505 126.863865 -10.936444 0.203247 2.265611 8.790768 2.598826 0.954500 3.919562 1.108478 0.954500 3.919562 1.108477 0.708479 2.941421 0.824906 14.242304 14.619644 -2.273707 27.493679 -7.205386 -9.463723 -1.233313 -3.040681 4.670741 10.614206 -15.734012 76.365370 3.341914 16.994205 -2.800708 2.653949 0.981578 -0.661169 -3.188257 -3.120873 -12.173354 5.889986 -11.801131 -75.590447 7.105599 18.013521 7.380021 2.827865 0.413438 -2.453051 -18.075591 12.188135 -2.726360 -3.395478 2.136855 0.560561 -12.073928 -6.176073 0.109083 0.000000 0.000000 0.000000 -13.023051 7.737337 -2.114543 -2.375894 4.542290 0.437860 -5.066817 -3.872462 -0.429641 0.000000 -0.000000 0.000000
-72.350422 97.627119 -77.905688 126.810970 -10.854569 0.235002 2.296466 8.729081 2.579645 0.968926 3.892224 1.099749 0.968926 3.892224 1.099749 0.719404 2.920930 0.818317 14.223497 14.653518 -2.261719 27.447914 -7.150701 -9.427278 -1.228478 -2.952401 4.644498 10.583092 -15.712121 76.403042 3.518939 17.113783 -2.617563 2.639942 0.980828 -0.631349 -3.196186 -3.044873 -12.189759 6.231051 -11.644927 -75.585431 7.172754 18.266623 7.410098 2.904123 0.461255 -2.593187 -17.935431 12.084342 -2.679369 -3.600061 2.151986 0.568071 -11.954849 -6.174799 0.062963 0.000000 0.000000 0.000000 -12.893652 7.643499 -2.100420 -2.521242 4.550386 0.475941 -5.003143 -3.882223 -0.473110 -0.000000 -0.000000 -0.000000
-72.350321 97.626287 -77.860645 126.763088 -10.789230 0.264031 2.320165 8.677024 2.562783 0.980072 3.869136 1.092133 0.980072 3.869136 1.092133 0.727853 2.903622 0.812578 14.203361 14.679117 -2.248227 27.400786 -7.111728 -9.389654 -1.225374 -2.865755 4.619338 10.520674 -15.667725 76.446626 3.652567 17.268462 -2.448314 2.632145 0.984087 -0.606022 -3.197065 -2.974390 -12.211363 6.509237 -11.498423 -75.583585 7.147636 18.513425 7.367210 2.959686 0.516691 -2.713020 -17.780501 12.000567 -2.632485 -3.803032 2.166678 0.574803 -11.859313 -6.173551 0.023423 0.000000 0.000000 0.000000 -12.767610 7.573344 -2.085913 -2.633985 4.549011 0.504837 -4.975942 -3.890853 -0.505727 -0.000000 -0.000000 -0.000000
-72.347518 97.625775 -77.820390 126.719016 -10.739176 0.289663 2.336655 8.633765 2.548570 0.987916 3.849930 1.085778 0.987915 3.849930 1.085778 0.733811 2.889221 0.807798 14.182903 14.698861 -2.233643 27.353833 -7.083735 -9.351346 -1.222856 -2.783233 4.596150 10.429475 -15.598961 76.494855 3.741855 17.449341 -2.293452 2.625726 0.991169 -0.580590 -3.197191 -2.907972 -12.238311 6.738994 -11.364379 -75.589078 7.035961 18.759668 7.256894 2.998973 0.572396 -2.820418 -17.621897 11.935250 -2.587103 -3.996884 2.181079 0.578071 -11.781744 -6.172520 -0.010353 0.000000 0.000000 0.000000 -12.646610 7.525869 -2.071099 -2.728168 4.537811 0.528341 -4.967107 -3.896460 -0.533022 0.000000 -0.000000 -0.000000
-72.343364 97.625430 -77.784282 126.676688 -10.700158 0.312929 2.347116 8.595345 2.537677 0.992993 3.832858 1.080982 0.992993 3.832858 1.080982 0.737681 2.876418 0.804200 14.165521 14.722395 -2.219056 27.311875 -7.048173 -9.313151 -1.216901 -2.705200 4.574658 10.316630 -15.506659 76.545147 3.772205 17.637335 -2.169210 2.615432 1.002190 -0.551361 -3.198932 -2.841042 -12.263687 6.910697 -11.256691 -75.623610 6.877810 18.945994 7.118809 3.022639 0.610074 -2.907808 -17.467514 11.881859 -2.545041 -4.182364 2.196963 0.579189 -11.711097 -6.173102 -0.041005 0.000000 0.000000 0.000000 -12.536858 7.496306 -2.062378 -2.830484 4.514890 0.556951 -4.938032 -3.891011 -0.568169 0.000000 0.000000 0.000000
-72.337742 97.625237 -77.752522 126.637546 -10.674695 0.333570 2.351445 8.562125 2.530779 0.995247 3.818083 1.078039 0.995247 3.818083 1.078039 0.739418 2.865336 0.802007 14.151418 14.753927 -2.203605 27.274182 -6.997550 -9.272551 -1.204913 -2.632733 4.554674 10.181201 -15.386645 76.597292 3.739944 17.829545 -2.079518 2.599071 1.018186 -0.516979 -3.203516 -2.772235 -12.284384 7.021904 -11.179792 -75.700239 6.684487 19.041302 6.965017 3.025795 0.617337 -2.966632 -17.315506 11.843142 -2.507017 -4.365069 2.214610 0.579396 -11.645227 -6.176184 -0.069354 0.000000 0.000000 0.000000 -12.441096 7.486026 -2.065594 -2.956662 4.481897 0.600425 -4.868938 -3.870359 -0.619236 0.000000 0.000000 0.000000
